<svg xmlns="http://www.w3.org/2000/svg" viewBox="0 0 64 64"><defs><style>.cls-1{isolation:isolate;}.cls-2{fill:#ffcc2c;}.cls-3{fill:#5c646a;}.cls-4{fill:#f0e5cd;}.cls-5{fill:#ef4639;}.cls-6,.cls-7{opacity:0.25;}.cls-6{mix-blend-mode:multiply;}.cls-8{fill:#010101;}.cls-9{mix-blend-mode:overlay;}.cls-10{fill:#fff;}.cls-11{fill:none;stroke:#010101;stroke-miterlimit:10;stroke-width:2px;}</style></defs><title>Icon Color3</title><g class="cls-1"><g id="Color"><g id="Color-2" data-name="Color"><path class="cls-2" d="M46.15,29a46.82,46.82,0,0,1-6.34,6.64c-1.43,1.18-3,2.37-4.62,3.56l-5.94-1.83a42,42,0,0,0,4.61-3.87,31.24,31.24,0,0,0,6-8.78A43.65,43.65,0,0,1,46.15,29Z"/><path class="cls-3" d="M35.19,39.21c-5,3.65-10.47,7.27-14,10.27-3.82,3.27-9.1,10-10.07,11a.19.19,0,0,1-.21,0l-.14,0a7.94,7.94,0,0,1-3-1.87,7.72,7.72,0,0,1-1.9-3.11A.19.19,0,0,1,6,55.27a95,95,0,0,0,9.56-8.08c2.41-2.52,8.58-6,13.73-9.81Z"/><path class="cls-4" d="M47.3,7.79a41.43,41.43,0,0,0-13.83,14q-2.11-.82-4.53-1.51a.68.68,0,0,1-.4-1c1.83-2.81,8.59-12.59,16-16.1a.66.66,0,0,1,.89.36C45.79,4.32,46.43,5.86,47.3,7.79Z"/><path class="cls-5" d="M58.22,26.39l-6.83,6.83a.67.67,0,0,1-1-.06A32.93,32.93,0,0,0,46.15,29a42.86,42.86,0,0,0-6.33-4.28,48.42,48.42,0,0,0-6.35-3,41.43,41.43,0,0,1,13.83-14C49.68,13,53.79,21.17,58.2,25.44A.67.67,0,0,1,58.22,26.39Z"/><path class="cls-5" d="M57.69,35.6l-4.2-4.2,4.82-4.82.55.55a5.58,5.58,0,0,1,0,7.89l-.59.59A.42.42,0,0,1,57.69,35.6Z"/></g></g><g id="Shadow" class="cls-6"><g id="Shadow-2" data-name="Shadow" class="cls-7"><path class="cls-8" d="M11,58.61a7.72,7.72,0,0,1-1.9-3.11.2.2,0,0,1,.08-.23,93.83,93.83,0,0,0,9.56-8.08C22,43.84,31.87,38.74,37.1,33.51a30.08,30.08,0,0,0,5.21-7.27c-.78-.5-1.59-1-2.49-1.51a31.46,31.46,0,0,1-6,8.78c-5.23,5.23-15.13,10.33-18.34,13.68A93.83,93.83,0,0,1,6,55.27a.2.2,0,0,0-.08.23,7.76,7.76,0,0,0,4.92,5l.13,0a.2.2,0,0,0,.21,0c.17-.17.49-.54.91-1A6.87,6.87,0,0,1,11,58.61Z"/><path class="cls-8" d="M56.17,31.4l3.4-3.4a5.34,5.34,0,0,0-.72-.88l-.55-.55-4.82,4.82,4.2,4.2a.41.41,0,0,0,.58,0l.59-.59c.16-.16.28-.34.42-.51Z"/><path class="cls-8" d="M57.21,24.4,51.4,30.21a.67.67,0,0,1-1,0A32.27,32.27,0,0,0,46.16,26a42.1,42.1,0,0,0-6.33-4.28,47.82,47.82,0,0,0-6.35-3h0c-1.18-.45-2.43-.87-3.74-1.26-.5.72-.91,1.33-1.19,1.76a.68.68,0,0,0,.39,1q2.42.69,4.54,1.51h0a48.42,48.42,0,0,1,6.35,3A43.66,43.66,0,0,1,46.16,29a31.62,31.62,0,0,1,4.25,4.15.67.67,0,0,0,1,0l6.83-6.83a.68.68,0,0,0,0-1C57.87,25.12,57.54,24.77,57.21,24.4Z"/></g></g><g id="Highlight" class="cls-9"><g id="Highlight-2" data-name="Highlight"><path class="cls-10" d="M44.46,27.71a45.47,45.47,0,0,1-6.17,6.43C32.5,38.92,24.36,44,19.69,48c-3.82,3.27-9.1,10-10.07,11a.18.18,0,0,1-.21,0l-.13,0a8.14,8.14,0,0,1-2.2-1.17,8,8,0,0,0,.7.82,7.78,7.78,0,0,0,3,1.87l.13,0a.2.2,0,0,0,.21,0c1-1,6.25-7.73,10.07-11,4.66-4,12.81-9,18.6-13.83A47.93,47.93,0,0,0,46.15,29C45.64,28.6,45.06,28.16,44.46,27.71Z"/><path class="cls-10" d="M28.94,20.25h0c2.94-4.07,8.38-10.76,14.27-13.53a.66.66,0,0,1,.89.36c.2.49.51,1.25.92,2.19.82-.58,1.59-1.07,2.28-1.48-.87-1.93-1.51-3.47-1.84-4.29a.66.66,0,0,0-.89-.36c-7.44,3.51-14.2,13.29-16,16.1A.68.68,0,0,0,28.94,20.25Z"/><path class="cls-10" d="M58.2,25.44C53.79,21.17,49.68,13,47.3,7.79c-.72.42-1.52.94-2.38,1.55,2.44,5.19,6.18,12.23,10.18,16.1a.67.67,0,0,1,0,1l-5.68,5.68c.41.44.74.81,1,1.09a.67.67,0,0,0,1,.06l6.83-6.83A.68.68,0,0,0,58.2,25.44Z"/><path class="cls-10" d="M58.86,27.12l-.55-.55-1.24,1.24a5.54,5.54,0,0,1-.3,6.87l.91.91a.41.41,0,0,0,.58,0l.59-.59A5.56,5.56,0,0,0,58.86,27.12Z"/><path class="cls-10" d="M47.3,7.79l-13.83,14A41.43,41.43,0,0,1,47.3,7.79Z"/></g></g><g id="Line"><g id="Line-2" data-name="Line"><path class="cls-11" d="M21.21,49.49c-3.82,3.27-9.1,10-10.07,11a.18.18,0,0,1-.21,0l-.13,0a7.93,7.93,0,0,1-3-1.87,7.72,7.72,0,0,1-1.9-3.11A.2.2,0,0,1,6,55.28a93.83,93.83,0,0,0,9.56-8.08c3.22-3.35,13.11-8.45,18.34-13.68a31.24,31.24,0,0,0,6-8.78A43.66,43.66,0,0,1,46.15,29a47.93,47.93,0,0,1-6.34,6.64C34,40.43,25.88,45.51,21.21,49.49Z"/><path class="cls-11" d="M58.22,26.4l-6.83,6.83a.67.67,0,0,1-1,0A32.27,32.27,0,0,0,46.15,29a42.1,42.1,0,0,0-6.33-4.28,50.15,50.15,0,0,0-10.89-4.48.67.67,0,0,1-.39-1c1.83-2.82,8.59-12.6,16-16.1a.66.66,0,0,1,.89.36c1.24,3,6.72,16.11,12.74,21.94A.65.65,0,0,1,58.22,26.4Z"/><path class="cls-11" d="M57.69,35.6l-4.2-4.2,4.82-4.82.55.55a5.58,5.58,0,0,1,0,7.89l-.59.59A.42.42,0,0,1,57.69,35.6Z"/><path class="cls-11" d="M33.48,21.77a41.3,41.3,0,0,1,13.83-14"/></g></g></g></svg>